<?xml version="1.0" encoding="iso-8859-1"?>
<!-- Generator: Adobe Illustrator 16.0.0, SVG Export Plug-In . SVG Version: 6.00 Build 0)  -->
<!DOCTYPE svg PUBLIC "-//W3C//DTD SVG 1.1//EN" "http://www.w3.org/Graphics/SVG/1.1/DTD/svg11.dtd">
<svg xmlns="http://www.w3.org/2000/svg" xmlns:xlink="http://www.w3.org/1999/xlink" version="1.1" id="Capa_1" x="0px" y="0px" width="48px" height="48px" viewBox="0 0 197.407 197.408" style="enable-background:new 0 0 197.407 197.408;" xml:space="preserve">
<g>
	<path d="M133.746,197.408c1.938,0,3.505-1.567,3.505-3.505V3.504c0-1.937-1.567-3.504-3.505-3.504   c-1.937,0-3.504,1.567-3.504,3.504v18.103H67.165V3.504C67.165,1.567,65.598,0,63.661,0c-1.939,0-3.504,1.567-3.504,3.504v190.398   c0,1.938,1.565,3.505,3.504,3.505c1.937,0,3.504-1.567,3.504-3.505v-21.61h63.078v21.61   C130.242,195.84,131.81,197.408,133.746,197.408z M130.242,95.198H67.165V63.659h63.078V95.198z M67.165,102.207h63.078v28.034   H67.165V102.207z M130.242,28.616V56.65H67.165V28.616H130.242z M67.165,165.284V137.25h63.078v28.034H67.165z" fill="#4CAF50"/>
</g>
<g>
</g>
<g>
</g>
<g>
</g>
<g>
</g>
<g>
</g>
<g>
</g>
<g>
</g>
<g>
</g>
<g>
</g>
<g>
</g>
<g>
</g>
<g>
</g>
<g>
</g>
<g>
</g>
<g>
</g>
</svg>
